<svg width="22" height="22" viewBox="0 0 22 22" fill="none" xmlns="http://www.w3.org/2000/svg">
<g id="gallery">
<path id="Vector" d="M7.93023 21.2326H14.0698C19.186 21.2326 21.2326 19.186 21.2326 14.0698V7.93023C21.2326 2.81395 19.186 0.767442 14.0698 0.767442H7.93023C2.81395 0.767442 0.767442 2.81395 0.767442 7.93023V14.0698C0.767442 19.186 2.81395 21.2326 7.93023 21.2326Z" stroke="white" stroke-width="1.5" stroke-linecap="round" stroke-linejoin="round"/>
<path id="Vector_2" d="M7.93023 8.95349C9.06049 8.95349 9.97674 8.03723 9.97674 6.90698C9.97674 5.77672 9.06049 4.86047 7.93023 4.86047C6.79998 4.86047 5.88372 5.77672 5.88372 6.90698C5.88372 8.03723 6.79998 8.95349 7.93023 8.95349Z" stroke="white" stroke-width="1.5" stroke-linecap="round" stroke-linejoin="round"/>
<path id="Vector_3" d="M1.45304 18.1122L6.49769 14.7252C7.30606 14.1829 8.47257 14.2443 9.19908 14.8685L9.53676 15.1652C10.3349 15.8508 11.6242 15.8508 12.4223 15.1652L16.6791 11.5122C17.4772 10.8266 18.7665 10.8266 19.5647 11.5122L21.2326 12.9447" stroke="white" stroke-width="1.5" stroke-linecap="round" stroke-linejoin="round"/>
</g>
</svg>
