<svg width="17" height="22" viewBox="0 0 17 22" fill="none" xmlns="http://www.w3.org/2000/svg">
<g id="microphone-2">
<path id="Vector" d="M8.50003 14.4197C10.7363 14.4197 12.5477 12.6083 12.5477 10.372V4.80655C12.5477 2.57024 10.7363 0.758929 8.50003 0.758929C6.26372 0.758929 4.45241 2.57024 4.45241 4.80655V10.372C4.45241 12.6083 6.26372 14.4197 8.50003 14.4197Z" stroke="white" stroke-width="1.5" stroke-linecap="round" stroke-linejoin="round"/>
<path id="Vector_2" d="M0.758929 8.5004V10.2206C0.758929 14.4909 4.22977 17.9617 8.50001 17.9617C12.7702 17.9617 16.2411 14.4909 16.2411 10.2206V8.5004" stroke="white" stroke-width="1.5" stroke-linecap="round" stroke-linejoin="round"/>
<path id="Vector_3" d="M7.09347 5.2408C8.00418 4.90687 8.99585 4.90687 9.90657 5.2408" stroke="white" stroke-width="1.5" stroke-linecap="round" stroke-linejoin="round"/>
<path id="Vector_4" d="M7.69052 7.38723C8.22683 7.24556 8.78338 7.24556 9.31969 7.38723" stroke="white" stroke-width="1.5" stroke-linecap="round" stroke-linejoin="round"/>
<path id="Vector_5" d="M8.50003 17.9613V20.997" stroke="white" stroke-width="1.5" stroke-linecap="round" stroke-linejoin="round"/>
</g>
</svg>
