<svg width="14" height="10" viewBox="0 0 14 10" fill="none" xmlns="http://www.w3.org/2000/svg">
<path id="YouTube" d="M7.31019 9.88362L4.43792 9.82994C3.50794 9.81124 2.57565 9.84858 1.66391 9.65478C0.276941 9.36523 0.178683 7.94549 0.0758663 6.75461C-0.0658044 5.08037 -0.0109594 3.37575 0.256391 1.71549C0.40732 0.783904 1.00128 0.228023 1.91983 0.167533C5.02059 -0.0519955 8.14198 -0.0259791 11.2359 0.0764389C11.5626 0.0858278 11.8916 0.137144 12.2138 0.195556C13.8042 0.480449 13.843 2.08932 13.9461 3.44369C14.0489 4.81203 14.0055 6.1874 13.809 7.54643C13.6514 8.67167 13.3497 9.61529 12.0767 9.70638C10.4817 9.8255 8.92334 9.92139 7.32386 9.89086C7.32393 9.88362 7.31475 9.88362 7.31019 9.88362ZM5.62157 7.03484C6.82353 6.3296 8.00255 5.63611 9.19763 4.9356C7.99343 4.23035 6.81666 3.53686 5.62157 2.83635V7.03484Z" fill="white"/>
</svg>
